<svg height="512pt" viewBox="0 -56 512 512" width="512pt" xmlns="http://www.w3.org/2000/svg" fill="#86ffea"><path d="m333.105469 150.859375v-30h-33.160157l42.714844-76.324219h-86.554687v30h35.386719l-42.714844 76.324219zm0 0"/><path d="m428.773438 90.816406v-30h-25.261719l34.039062-60.816406h-73.445312v30h22.277343l-34.039062 60.816406zm0 0"/><path d="m512 254.398438h-40.195312c-15.476563-40.265626-54.554688-68.921876-100.203126-68.921876h-231.199218c-45.652344 0-84.730469 28.65625-100.207032 68.921876h-40.195312v30h33.414062c-.214843 2.765624-.324218 5.566406-.324218 8.390624 0 59.171876 48.136718 107.3125 107.363281 107.3125 36.613281 0 70.324219-18.371093 90.175781-49.136718l25.371094-39.324219 25.371094 39.324219c19.851562 30.765625 53.5625 49.136718 90.230468 49.136718 59.171876 0 107.308594-48.140624 107.308594-107.316406 0-2.820312-.109375-5.621094-.324218-8.386718h33.414062zm-140.453125 115.703124c-26.378906 0-50.664063-13.234374-64.96875-35.402343l-39.695313-61.535157h-21.761718l-39.699219 61.535157c-14.304687 22.167969-38.589844 35.398437-65.019531 35.398437-42.632813 0-77.3125-34.679687-77.3125-77.3125 0-42.628906 34.679687-77.3125 77.3125-77.3125h231.199218c42.628907 0 77.308594 34.683594 77.308594 77.3125s-34.679687 77.316406-77.363281 77.316406zm0 0"/></svg>