<svg height="512pt" viewBox="0 -99 512.001 512" width="512pt" xmlns="http://www.w3.org/2000/svg"><path d="m481.03125 45.464844v135.539062c0 5.726563-4.648438 10.363282-10.375 10.363282h-429.3125c-5.726562 0-10.375-4.640626-10.375-10.363282v-135.539062c0-25.109375 20.355469-45.464844 45.464844-45.464844h359.128906c25.113281 0 45.46875 20.355469 45.46875 45.464844zm0 0" fill="#cbd359"/><path d="m481.023438 45.46875v29.609375c0-25.109375-20.34375-45.464844-45.464844-45.464844h-359.117188c-25.117187 0-45.464844 20.355469-45.464844 45.464844v-29.609375c0-25.105469 20.347657-45.46484375 45.464844-45.46484375h359.117188c25.117187 0 45.464844 20.35937475 45.464844 45.46484375zm0 0" fill="#bec11e"/><path d="m84.949219 193.992188c-4.277344 0-8.566407-1.511719-12.003907-4.585938-7.425781-6.632812-8.070312-18.027344-1.4375-25.453125l62.105469-69.527344c13.039063-14.59375 35.128907-16.339843 50.296875-3.972656l61.53125 50.171875c7.714844 6.289062 8.871094 17.648438 2.578125 25.363281-6.292969 7.714844-17.648437 8.871094-25.363281 2.578125l-61.53125-50.167968c-.1875-.152344-.460938-.132813-.621094.046874l-62.105468 69.527344c-3.558594 3.984375-8.496094 6.019532-13.449219 6.019532zm0 0" fill="#336686"/><path d="m38.632812 187.644531h217.5625v-39.949219h-217.5625c-11.03125 0-19.976562 8.945313-19.976562 19.976563s8.945312 19.972656 19.976562 19.972656zm0 0" fill="#4c78a0"/><path d="m336.753906 110.039062-95.644531 7.640626c-6 .480468-10.3125 5.976562-9.351563 11.917968l9.898438 61.042969 164.203125-.019531v-16.777344c.003906-37.359375-31.863281-66.78125-69.105469-63.804688zm0 0" fill="#f55"/><path d="m440.730469 180.519531h-34.582031c-11.28125 0-20.425782-9.144531-20.425782-20.425781s9.144532-20.425781 20.425782-20.425781h34.582031c11.28125 0 20.425781 9.144531 20.425781 20.425781s-9.144531 20.425781-20.425781 20.425781zm0 0" fill="#38aaff"/><path d="m54.625 280.515625c-9.285156 0-16.8125-7.527344-16.8125-16.8125v-28.296875h33.625v28.296875c0 9.285156-7.527344 16.8125-16.8125 16.8125zm0 0" fill="#4c78a0"/><path d="m457.375 280.515625c-9.285156 0-16.8125-7.527344-16.8125-16.8125v-28.296875h33.625v28.296875c0 9.285156-7.527344 16.8125-16.8125 16.8125zm0 0" fill="#4c78a0"/><path d="m486.628906 243.183594h-461.257812c-14.011719 0-25.371094-11.359375-25.371094-25.371094v-13.707031c0-14.011719 11.359375-25.371094 25.371094-25.371094h461.257812c14.011719 0 25.371094 11.359375 25.371094 25.371094v13.707031c0 14.011719-11.359375 25.371094-25.371094 25.371094zm0 0" fill="#e6f072"/><path d="m374.386719 161.429688-6.261719 17.308593h-16.441406l8.167968-22.5625c1.453126-4.015625 5.882813-6.097656 9.898438-4.636719 4.007812 1.453126 6.078125 5.882813 4.636719 9.890626zm0 0" fill="#f72b2b"/><path d="m328.492188 150.914062-10.074219 27.824219h-16.441407l11.980469-33.089843c1.453125-4.007813 5.882813-6.089844 9.898438-4.625 4.007812 1.453124 6.089843 5.882812 4.636719 9.890624zm0 0" fill="#f72b2b"/><path d="m297.035156 283.976562c-8.023437-2.90625-12.171875-11.765624-9.269531-19.789062l41.960937-115.902344c2.902344-8.027344 11.757813-12.179687 19.789063-9.273437 8.023437 2.90625 12.171875 11.765625 9.269531 19.789062l-41.960937 115.90625c-2.902344 8.023438-11.761719 12.171875-19.789063 9.269531zm0 0" fill="#f55"/><g fill="#fecaa8"><path d="m309.140625 294.667969-7.898437 13.691406c-1.964844 3.40625-5.746094 5.34375-9.65625 4.953125l-12.429688-1.238281c-7.226562-.722657-11.300781-8.664063-7.671875-14.953125l10.464844-18.136719c4.332031-7.511719 13.929687-10.085937 21.441406-5.753906 7.507813 4.328125 10.082031 13.929687 5.75 21.4375zm0 0"/><path d="m262.566406 113.769531-.296875-2.445312c-.441406-3.609375 2.125-6.890625 5.734375-7.332031l34.777344-4.246094c3.605469-.441406 6.890625 2.128906 7.328125 5.738281l.300781 2.445313c1.199219 9.832031-5.796875 18.777343-15.628906 19.976562l-12.238281 1.496094c-9.832031 1.199218-18.773438-5.800782-19.976563-15.632813zm0 0"/><path d="m439.3125 131.945312c-1.871094 1.871094-3.882812 3.539063-5.988281 4.992188-.714844.492188-1.449219.964844-2.179688 1.40625-16.40625 9.875-38.023437 7.738281-52.167969-6.40625-16.660156-16.660156-16.652343-43.675781 0-60.328125 1.386719-1.390625 2.839844-2.660156 4.367188-3.816406.726562-.558594 1.472656-1.082031 2.226562-1.585938 2.722657-1.820312 5.628907-3.285156 8.621094-4.40625 15.171875-5.667969 32.925782-2.394531 45.121094 9.800781 16.332031 16.332032 16.652344 42.613282.960938 59.339844-.304688.335938-.625.667969-.960938 1.003906zm0 0"/></g><path d="m440.277344 130.941406c-48.335938-29.089844-46.089844-69.136718-46.089844-69.136718 15.175781-5.671876 32.929688-2.398438 45.125 9.796874 16.332031 16.332032 16.65625 42.617188.964844 59.339844zm0 0" fill="#336686"/></svg>